<?xml version="1.0" encoding="UTF-8" standalone="no"?>
<svg
   xmlns:dc="http://purl.org/dc/elements/1.1/"
   xmlns:cc="http://creativecommons.org/ns#"
   xmlns:rdf="http://www.w3.org/1999/02/22-rdf-syntax-ns#"
   xmlns:svg="http://www.w3.org/2000/svg"
   xmlns="http://www.w3.org/2000/svg"
   xmlns:sodipodi="http://sodipodi.sourceforge.net/DTD/sodipodi-0.dtd"
   xmlns:inkscape="http://www.inkscape.org/namespaces/inkscape"
   width="550"
   height="550"
   id="svg2"
   version="1.1"
   inkscape:version="0.48.5 r10040"
   sodipodi:docname="logo.svg"
   inkscape:export-filename="/home/nat/projects/slap.pm/src/logo.png"
   inkscape:export-xdpi="0.16363636"
   inkscape:export-ydpi="0.16363636">
  <metadata
     id="metadata17">
    <rdf:RDF>
      <cc:Work
         rdf:about="">
        <dc:format>image/svg+xml</dc:format>
        <dc:type
           rdf:resource="http://purl.org/dc/dcmitype/StillImage" />
        <dc:title>Hand Print</dc:title>
      </cc:Work>
    </rdf:RDF>
  </metadata>
  <defs
     id="defs15" />
  <sodipodi:namedview
     pagecolor="#ffffff"
     bordercolor="#666666"
     borderopacity="1"
     objecttolerance="10"
     gridtolerance="10"
     guidetolerance="10"
     inkscape:pageopacity="0"
     inkscape:pageshadow="2"
     inkscape:window-width="1223"
     inkscape:window-height="776"
     id="namedview13"
     showgrid="false"
     fit-margin-top="4"
     fit-margin-left="4"
     fit-margin-right="4"
     fit-margin-bottom="4"
     inkscape:zoom="1.1218182"
     inkscape:cx="275.89141"
     inkscape:cy="269.65154"
     inkscape:window-x="57"
     inkscape:window-y="24"
     inkscape:window-maximized="1"
     inkscape:current-layer="svg2" />
  <title
     id="title4">Hand Print</title>
  <g
     id="g6"
     transform="matrix(0.7139907,-0.7001552,0.7001552,0.7139907,-89.955504,302.24851)"
     style="fill:#ff5555">
    <title
       id="title8">Layer 1</title>
    <g
       id="        _x0020_1"
       transform="matrix(0.99999973,7.3091243e-4,-7.3091243e-4,0.99999973,0.16363661,-0.218441)"
       style="fill:#ff5555">
      <metadata
         transform="translate(0,2) "
         fill="#ff0000"
         id="CorelCorpID_0Corel-Layer" />
      <path
         class="fil0"
         d="m 196.90259,447.02206 c -0.0743,0.0271 -0.14902,0.0542 -0.22373,0.0813 0.73607,0.67694 11.06421,6.90247 11.6043,6.90247 0.60472,0 1.20903,0 1.81332,0 -0.35461,-4.50458 -2.90107,-11.35062 -2.90107,-14.57108 0,-5.33459 3.19735,-23.92721 5.80217,-24.92416 0,-2.85462 3.98796,-9.38376 5.26496,-12.07187 1.09237,-2.29983 4.76813,-10.16815 7.06452,-10.16815 0.12128,0 0.24209,0 0.36296,0 0.83553,0 1.08775,0.26675 1.08775,1.15008 0,0.12787 0,0.25571 0,0.38361 0,3.7139 -9.78259,12.32004 -9.83461,19.11676 -1.78145,1.40271 -2.37944,6.04086 -2.93802,8.4068 -0.36845,1.56204 -1.00756,6.50467 -1.00756,8.52084 0,0.12735 0,0.25522 0,0.38306 0,13.3237 3.83815,27.32297 10.06373,33.83877 1.58502,1.65928 3.63379,4.02384 5.39339,5.41715 2.34671,1.85767 4.13234,2.60876 6.52394,4.22186 3.6086,2.43384 10.38058,5.2201 16.09587,5.2201 0.002,0.22943 0.004,0.45892 0.006,0.68884 3.38241,0.28143 6.76484,0.56335 10.14726,0.84521 21.01169,1.96821 34.24216,-15.6958 44.21146,-26.10672 2.85199,-2.97845 4.81427,-6.90597 8.7771,-8.74102 3.38617,-1.56781 7.61212,-5.05048 10.20135,-7.61838 3.42273,-3.39487 5.31494,-5.36707 8.19043,-9.36206 2.87338,-3.99189 3.91791,-8.18256 6.22391,-11.82419 0,-1.80313 -0.1355,-2.92883 1.08816,-3.4512 0,-2.42856 0,-4.85709 0,-7.28553 0,-6.26681 -0.53674,-5.62356 -2.30981,-10.97869 -0.64667,-1.9535 -4.21793,-9.15375 -4.21793,-10.11072 0,-0.89493 0,-1.78989 0,-2.68424 0,-3.72021 3.77942,-11.60763 5.30109,-14.33398 0.46625,-0.83539 3.75171,-4.46283 4.49069,-5.22144 0.92325,-0.94809 3.05762,-5.81842 2.99304,-7.29709 -0.13391,-1.54556 -0.26822,-3.09115 -0.40249,-4.63632 -0.25931,-0.36844 -0.51871,-0.73645 -0.77805,-1.1044 0,-2.58701 -2.33447,-6.61569 -3.53012,-8.15372 -1.01303,-1.30417 -4.61999,-5.26675 -6.26083,-5.26675 -0.48346,0 -0.96692,0 -1.45075,0 -2.63208,-6.89755 -29.37036,-7.68674 -35.17547,-12.27344 -3.62623,-0.38266 -7.25245,-0.76529 -10.87912,-1.14746 -3.36728,-1.12839 -2.90445,-7.36719 -3.98926,-8.43555 -0.74695,-1.02584 -3.03198,-0.79596 -3.2645,-0.77557 -2.18976,0.23968 -4.37991,0.47989 -6.5701,0.71997 -0.34787,0.27393 -0.69577,0.54825 -1.0441,0.8226 -2.212,0 -12.69244,1.57483 -12.69244,2.68372 0,2.99444 7.58398,6.18869 10.08639,7.35702 1.85151,0.86511 10.7482,5.2666 12.03443,5.29682 0.23294,0.92202 2.79028,3.06775 3.26364,3.06775 1.29925,0 3.92798,2.73028 5.05728,3.85516 1.34207,1.33694 2.57877,2.79156 3.9263,4.2843 1.2048,1.33484 6.24741,8.08142 6.24741,9.88272 0,7.58686 -5.16471,-2.59628 -7.16269,-4.69671 -1.23505,-1.29889 -6.83405,-6.5438 -6.98053,-7.95716 -1.16666,-0.13488 -5.0069,-4.03085 -6.77112,-5.11044 -2.42017,-1.48083 -4.96536,-3.2395 -7.37042,-4.47699 -1.7038,-0.87631 -1.87879,-1.42276 -3.84906,-2.06546 -1.01767,-0.33203 -3.00849,-1.43957 -3.90741,-2.00329 -1.48264,-0.92945 -11.54721,-6.28315 -13.64003,-6.28315 -0.24175,0 -0.48346,0 -0.7256,0 -1.17629,0 -6.69727,2.68418 -6.88988,2.68418 -3.01775,0 -5.45342,-1.91715 -8.70322,-1.91715 -0.48346,0 -0.96689,0 -1.45074,0 -4.64894,0 -12.59847,2.13413 -16.1714,3.60657 -9.63904,3.97183 -15.79119,8.65353 -24.89098,12.79236 -3.02782,1.37692 -7.82153,6.84247 -9.70664,7.37466 1.56868,-7.11944 17.74848,-16.40204 23.01473,-18.99435 1.76002,-0.866 2.34375,-1.2255 3.8818,-2.03028 3.13735,-1.64236 4.91962,-1.89456 8.23908,-3.17514 1.22583,-0.47271 19.0863,-8.00985 14.18307,-8.00985 -0.0533,0 -4.01944,-1.16043 -5.22007,-1.3823 -2.11969,-0.39108 -4.54949,-0.15848 -6.751,-0.1474 -4.09793,0.0204 -8.70993,-0.77102 -13.05084,-0.77102 -2.31189,-0.74836 -27.38165,-6.01731 -29.73633,-15.33805 2.09745,0.51676 5.3758,3.62256 7.2974,4.55429 5.63931,2.73615 11.79523,5.94892 18.06024,7.15631 1.25986,0.6099 4.72075,1.32679 6.19202,1.32679 1.93423,0 3.86838,0 5.80218,0 0.97904,0 0.99959,-0.18335 1.81287,-0.38352 -0.0688,-3.2803 -3.77811,-3.70556 -5.87259,-4.74597 -2.29804,-0.76169 -4.59653,-1.52304 -6.89499,-2.2843 0.20648,-1.00189 7.21639,0.33243 8.4204,0.46783 1.07261,0.22638 9.62895,2.46048 10.87492,2.72818 1.68497,1.72318 5.16008,0.26718 7.25247,1.91712 2.19147,0 12.28034,3.47342 13.59639,4.4122 3.43697,2.45208 12.57201,0.5318 16.94231,1.25799 1.95099,0.3245 14.72653,-0.44387 16.82187,-0.83847 2.24472,-0.42215 6.60913,-0.40442 8.18326,-0.93356 1.9472,-0.65469 5.22763,-1.96991 6.82986,-2.36459 -0.13974,-6.62983 -23.60641,-11.99512 -24.29675,-13.80393 -2.27155,0 -9.29114,-2.63003 -12.05207,-3.36108 -5.59483,-1.4813 -10.74945,-2.92926 -15.91455,-3.86899 -0.34785,-0.27426 -0.69621,-0.54862 -1.04452,-0.82245 -3.46175,0 -5.46349,-0.63788 -8.56348,-1.29794 -1.36471,-0.29074 -7.71493,-1.76978 -8.48037,-1.76978 -5.47819,0 -10.49096,-2.24878 -16.67121,-2.31085 -3.42395,-0.0347 -11.04909,-0.24283 -11.97696,-2.67358 -2.10707,0 -10.63489,-2.75205 -13.04245,-3.46454 -1.74576,-0.51618 -12.32231,-2.28726 -14.15536,-2.28726 -1.69458,-0.0466 -3.38957,-0.0932 -5.08454,-0.13941 -4.10716,0.30179 -8.21434,0.6041 -12.32193,0.9064 0,0.38309 0,0.76658 0,1.15012 0,1.80084 7.14045,3.5972 7.6155,4.98486 4.82393,0 7.92433,3.06772 11.60429,3.06772 0.48343,0 0.96689,0 1.45033,0 1.07642,2.8191 9.07,-0.0183 9.42629,3.66913 -4.00267,-0.0542 -8.00534,-0.10827 -12.00801,-0.16241 -0.36673,-0.18784 -0.73357,-0.37555 -1.10034,-0.56336 -3.84949,-0.85357 -7.69895,-1.70675 -11.54848,-2.5599 -4.71608,-3.33939 -17.76903,-4.54892 -17.76903,-13.03742 0,-0.78601 0.61775,-1.7009 0.72518,-3.06766 1.83346,-0.1611 2.53723,-1.15005 3.26365,-1.15005 1.20902,0 2.41762,0 3.62624,0 1.53215,0 5.67334,1.88208 7.2424,2.31125 2.05923,0.56332 6.40057,0.75595 9.07629,0.75595 0.36304,0 0.72559,0 1.08817,0 0,0.25574 0,0.51138 0,0.76709 4.37115,0 10.02261,0.63565 14.16969,1.1217 3.04164,0.35688 3.92583,0.29868 6.6456,1.02536 1.14021,0.30493 5.93518,1.68762 6.38211,1.68762 0.36301,0 0.72559,0 1.08817,0 0,0.25525 0,0.51096 0,0.76658 0.48346,0 0.96687,0 1.45033,0 0.1171,0 4.58136,2.33483 5.43411,2.68997 2.70972,1.12835 4.81218,0.36929 7.33812,1.05996 2.93001,0.80127 11.46367,1.2349 15.1944,1.17939 0.34831,0.27395 0.69664,0.54828 1.04454,0.82257 9.79015,0 41.74222,5.48956 51.85672,12.65393 2.83728,0 18.58612,7.47235 22.01468,8.93133 2.72317,1.15943 6.19998,5.05902 8.69021,6.91577 4.51719,3.36817 6.54493,0.641 12.44904,0.641 1.25903,-0.89136 7.64822,-2.9141 9.92065,-4.08066 2.41764,-1.24069 6.51389,-4.26306 8.30246,-6.17621 3.89649,-4.1676 9.33732,-12.11496 9.33732,-20.03568 0,-1.73294 0.81921,-10.35281 -0.72556,-10.35281 0,-4.89816 -1.93088,-6.1442 -2.17551,-6.9024 -0.87289,-0.96277 -0.21487,-0.29377 -1.08816,-1.53363 -0.59339,-3.12006 -11.0235,-14.75873 -13.4852,-16.80021 -2.8356,-2.3508 -5.33127,-4.6528 -8.54587,-6.68493 -0.54928,-0.34754 -10.24335,-6.14243 -10.24335,-2.58921 0,0.38312 0,0.76661 0,1.15015 0,2.4827 1.08777,3.9639 1.08777,4.60132 -0.002,1.13899 -0.004,2.27801 -0.006,3.41745 -0.8439,0.13896 -1.68826,0.27792 -2.53259,0.41728 -0.22662,-2.88707 -9.42505,-10.98442 -11.82129,-13.19139 -1.77008,-1.63083 -4.12897,-3.11081 -5.55411,-4.48021 -0.79818,-0.76656 -5.02621,-3.78896 -5.876,-4.13963 -0.73737,-0.30451 -6.35486,-3.09168 -6.56549,-3.4108 -0.54349,-0.82434 -0.67231,-2.08231 -1.62995,-3.26169 -0.72058,-0.88778 -1.7395,-1.63751 -2.643,-2.1902 -1.81919,-1.11278 -4.94437,-1.87004 -7.80179,-2.04942 -5.05267,-0.31644 -12.13854,1.28067 -17.98683,1.22476 -0.34917,0.26141 -0.69873,0.52333 -1.0483,0.78522 -1.44908,0.14023 -2.89815,0.28055 -4.34764,0.4208 -3.14526,0.0297 -6.29104,0.0595 -9.43675,0.0892 -1.81041,-0.15751 -3.62077,-0.31511 -5.43161,-0.4727 -0.37181,-0.97427 -4.08701,-2.51065 -5.04633,-3.48311 -1.71347,-1.73613 -2.78148,-2.59679 -5.22596,-3.67676 -2.52716,-1.11598 -2.41469,-1.8874 -5.97879,-2.88081 -1.32195,-0.36803 -5.71527,-1.25885 -6.23229,-2.6127 -2.64807,0 -2.65809,-0.76705 -4.71402,-0.76705 -3.50537,0 -7.01076,0 -10.51655,0 -2.2632,0 -3.77141,1.17101 -7.25123,1.15187 -2.90359,-0.016 -5.26246,0.0488 -7.90126,0.46471 -2.43945,0.38484 -4.98675,1.09372 -7.00529,1.41162 -3.68289,0.58058 -3.33669,2.27443 -6.12781,2.34009 -0.47925,0.95747 -5.04634,4.19656 -6.20418,5.32669 -2.04371,1.99617 -4.65774,3.09563 -7.06823,4.79616 -3.81046,2.6886 -10.11705,7.42085 -12.69246,11.1203 -0.96186,1.38136 -1.44614,1.69073 -2.48731,3.1214 -0.72726,0.99873 -1.86705,2.8786 -2.45707,3.53689 -1.86286,2.07915 -2.58928,5.90458 -3.96784,8.07517 -2.20613,5.1983 -7.18869,13.26684 -7.18869,18.85629 0,2.75293 -1.93377,5.11264 -2.90107,7.66901 -0.72512,2.55636 -1.45033,5.11267 -2.17591,7.66903 -0.36258,1.40574 -0.72512,2.81159 -1.08816,4.21775 -0.0109,0.89312 -0.0218,1.78668 -0.0332,2.6802 -0.95592,9.71537 -1.91194,19.43064 -2.86792,29.14603 -0.24171,0 -0.48343,0 -0.72515,0 0,0.76657 0,1.53363 0,2.30063 0,7.35391 -2.11884,22.57477 -3.18597,29.99118 -0.7319,5.08514 -1.46587,10.0394 -1.87969,14.88397 -0.37391,4.37451 -2.18682,10.70343 -2.18682,14.55951 0,8.38367 0.64128,14.97492 1.81291,23.77365 0,0.6387 0,1.27789 0,1.91712 0.75538,0.32266 3.30273,7.60946 3.88018,8.93457 1.52372,3.49557 3.0299,5.44378 4.82309,8.32064 3.19857,5.13037 8.12451,9.595 12.98999,13.10614 1.32606,0.957 6.50922,4.73584 7.8295,5.14154 2.33533,0.71821 2.44991,0.767 4.33499,1.93491 1.41341,0.87576 3.4076,1.09235 4.89318,1.728 3.79664,1.62423 15.64431,4.81137 20.72172,4.93075 0.40416,-1.05874 4.28052,-2.15866 5.35941,-3.15207 1.6761,-1.54385 3.18354,-2.23812 6.24073,-2.2203 6.36995,0.0377 10.44811,-1.14609 15.95984,-1.14609 1.69252,0 3.38495,0 5.07698,0 0.97953,0 1.00008,0.18286 1.81339,0.38345 0,0.5109 0,1.02225 0,1.53369 0,1.08082 -1.15537,1.70798 -1.78899,2.27842 -2.59517,0.32846 -6.03427,2.20837 -6.63139,4.57339 0.0663,-0.14383 0.13257,-0.28766 0.19847,-0.431 3.17803,1.66678 6.3557,3.33402 9.53334,5.00119 z M 320.33814,31.82962 c 0,1.91003 -13.40625,44.277641 -14.40003,46.023003 -0.1561,1.914024 -0.31222,3.828079 -0.46832,5.742081 -5.73963,4.06427 -9.62775,16.042953 -11.82337,24.309426 -1.10159,4.14946 -8.84674,25.83241 -8.84674,27.45616 0,0.89439 0,1.78931 0,2.68417 0,4.13126 14.1428,1.57758 14.1428,4.98487 0,0.38351 0,0.76698 0,1.15049 -1.53342,0.3778 -3.08487,0.57085 -3.2385,2.13199 1.80453,0.31166 3.6095,0.62323 5.41443,0.93531 0,0.6392 0,1.27836 0,1.91755 -1.49024,0.13097 -0.81037,0.38311 -2.17593,0.38311 -5.76606,0 -8.17023,-0.74309 -11.93583,2.71742 -1.53595,1.41162 -2.53808,2.17332 -3.9259,3.90088 -1.28491,1.59977 -2.00342,4.18277 -2.99545,4.88542 0,2.25677 -1.99381,7.91627 -2.17594,11.50336 -0.2543,5.02256 -1.04992,6.95523 -0.14856,12.42747 0.83765,5.08339 0.91446,7.06622 2.62455,11.02878 0.5527,1.28062 1.53384,3.51645 2.32238,4.44642 0.98114,1.15677 3.51169,2.00681 3.90488,3.15648 1.3295,0 2.65936,0 3.98926,0 3.49863,0 9.11651,-4.1317 11.53464,-5.8256 1.80993,-1.26774 3.00427,-2.80266 4.51757,-4.42601 5.40976,-5.80204 12.95847,-21.75573 12.95847,-28.47663 0,-0.9037 -3.60269,-4.89691 -4.43988,-5.65813 -1.50577,-1.36985 -4.93604,-2.59057 -4.9885,-5.07853 0.42514,-0.11901 0.98829,-0.38307 1.08777,-0.38307 3.93088,0 6.60074,4.21775 7.97803,4.21775 5.02118,0 9.08218,-7.84697 11.31519,-11.42602 1.78772,-2.86617 6.81683,-12.459 7.15844,-16.46553 1.55863,-6.01109 3.11765,-12.02176 4.67664,-18.03246 0.50275,-2.07519 1.00595,-4.15036 1.50906,-6.22503 -2.20312,-3.47873 -10.24585,-5.939197 -14.51287,-7.661029 -2.65262,-1.070648 -4.89866,-2.19545 -8.17612,-2.858185 -2.63004,-0.531769 -7.40988,-1.232666 -7.40988,-4.051773 0,-3.349136 3.108,-2.684196 5.07702,-2.684196 0.84598,0 1.69199,0 2.53845,0 0.99122,-3.92572 10.20307,-2.300636 14.50538,-2.300636 0.53338,1.397339 4.71737,2.550552 6.30111,2.923416 2.89771,0.682251 4.60865,2.061417 7.11649,2.061417 0.73694,0 2.21417,-2.197693 2.90106,-2.684196 0,-3.902184 2.9397,-17.91568 4.71445,-19.172325 0,-2.579414 7.85885,-21.052643 8.99191,-25.002331 2.01358,-7.01873 6.96381,-19.323702 6.96381,-27.529821 0,-9.56441 -8.68186,-18.40574 -17.4065,-18.40574 -1.20904,0 -2.4176,0 -3.62625,0 -3.82892,0 -9.48834,2.29977 -11.97018,3.83118 -6.39514,3.94614 -3.93177,2.92121 -8.24872,8.14975 -1.17969,1.42842 -5.22974,8.206571 -6.08588,10.05313 -0.82171,1.771999 -4.30731,10.925829 -5.24444,11.32621 z M 223.15152,-5.74846 c -2.25018,3.55287 -3.62666,30.774631 -3.49866,38.140027 0.80323,0.707085 1.60692,1.414223 2.4105,2.121784 0.36257,0 0.72515,0 1.08816,0 0.81287,0 0.79608,0.303619 1.45242,0.739517 2.17508,0.136711 4.35015,0.273872 6.52564,0.411041 0,5.4123 -6.21593,3.61673 -7.61548,9.969681 -2.25984,0.19886 -8.09219,4.794418 -8.71874,6.885998 -1.35046,4.508511 -2.52464,7.363621 -2.52296,13.436878 0.003,11.023911 -1.55441,19.946472 -1.41089,31.05867 -0.007,3.900424 -1.92578,15.754884 0.22284,21.437954 0.71634,1.89454 1.88467,3.10325 3.72653,3.10325 0.6043,0 1.20862,0 1.8129,0 0,0.38304 0,0.76656 0,1.15013 0,1.87626 -6.26628,5.00833 -7.74347,8.30062 -1.08899,2.42759 -3.13565,9.91111 -3.13565,13.17273 -0.0894,3.84586 -0.17876,7.69216 -0.26816,11.53843 0.57285,4.84498 1.14566,9.69044 1.7189,14.5359 1.61315,2.5475 2.32489,4.50238 4.90744,6.31427 1.72141,1.20825 5.45847,2.88843 8.14762,2.88843 0.84602,0 1.69205,0 2.53848,0 11.23165,0 21.39523,-21.65323 21.39523,-34.12686 0.21991,-0.002 0.44024,-0.004 0.66056,-0.006 0.14227,-2.17103 0.28495,-4.34213 0.42763,-6.51274 0,-0.38348 0,-0.767 0,-1.15056 0,-6.57573 -0.45282,-9.92085 -6.91591,-10.71229 -0.97864,-0.11981 -5.16721,0.23485 -6.47737,0.38485 -3.73618,0.42835 -7.73298,1.8919 -11.99122,1.8919 -0.59379,0 -1.08815,-0.22956 -1.08815,-0.76705 0,-2.67402 5.46894,-5.10914 7.68891,-5.67377 6.60159,-1.67923 10.54674,-3.14541 17.33298,-3.14541 0.24719,0.64718 1.90608,1.53369 2.53849,1.53369 4.45464,0 0.67188,-4.21782 -1.81332,-4.21782 -3.26617,-0.0156 -6.53191,-0.0307 -9.79768,-0.0458 -2.7781,0.39868 -5.55623,0.79729 -8.33391,1.19589 -0.83051,0.13539 -0.97905,-0.27792 -2.17591,-0.38351 0,-0.51136 0,-1.02272 0,-1.53363 2.0282,-0.57262 4.82225,-4.21781 9.0658,-4.21781 6.27508,0 14.50577,3.44672 14.50577,-4.21824 0,-0.94461 4.40344,-11.399013 4.93684,-14.335361 0.87665,-4.824142 3.40381,-11.572052 3.35095,-16.386459 0.25934,-0.367973 0.51868,-0.735947 0.77802,-1.103973 0,-5.673706 1.34793,-10.190697 0.15863,-15.889305 -1.78395,-8.546143 -6.06989,-8.768982 -6.69432,-10.494362 -1.44786,-0.15271 -2.89563,-0.305389 -4.34343,-0.457649 -6.87946,-0.844261 -15.91083,1.917149 -22.06586,1.904278 -0.13937,-0.7626 -0.27866,-1.5252 -0.4176,-2.2878 3.84073,-2.148838 5.79545,-2.68417 11.60432,-2.68417 2.09868,0 12.69245,1.75156 12.69245,0.383511 0,-2.592728 -11.01467,-3.591469 -13.7802,-3.834728 0,-0.383522 0,-0.767033 0,-1.150112 0,-1.874969 6.19621,-1.91758 7.61505,-1.91758 2.28839,0 4.78366,0.62011 6.16679,1.531849 2.60355,1.716461 2.41555,1.468822 5.80051,2.302883 1.30176,-2.60162 4.22844,-6.064823 5.04927,-9.232002 0.8909,-3.43652 2.5784,-6.491339 3.51422,-10.855179 1.61563,-7.537641 3.40338,-17.03991 3.40338,-25.92651 0,-0.51136 0,-1.02271 0,-1.53407 0,-5.14331 -0.92742,-12.462149 -1.82681,-16.85702 -1.01425,-4.957769 -7.24527,-9.338932 -7.60156,-10.750931 -2.36391,-0.05593 -4.80296,-3.067688 -7.61548,-3.067688 -2.90108,0 -5.80216,0 -8.70323,0 -1.29846,0 -6.33008,2.935417 -7.32465,3.75882 -1.4373,1.19006 -3.88809,4.894299 -4.83566,6.773258 -1.7294,3.428581 -4.52095,13.645951 -4.52095,18.609931 z M 439.64523,56.3703 c -0.60424,0 -1.20859,0 -1.81295,0 -5.92426,0 -13.43146,5.30312 -16.65943,8.459137 -1.68786,1.650375 -8.98022,12.447906 -10.41501,15.061966 -0.90179,1.643265 -3.91076,6.478516 -5.05218,7.694313 -0.73606,0.783913 -3.73331,6.778572 -4.57175,8.203011 -1.54224,2.618912 -7.54327,15.246153 -7.54327,18.482083 -1.79538,1.27085 -7.38343,11.23655 -7.61545,14.1875 0.87491,0.0204 8.53577,2.02716 9.64898,2.45064 0.0845,0.0325 3.92344,1.91814 4.20166,2.07611 1.56617,0.89043 2.76011,2.53414 3.5557,2.75871 0,0.38355 0,0.76706 0,1.15055 -5.47104,0.48117 -7.47653,-2.68413 -11.60422,-2.68413 0.74527,3.38284 4.71436,4.66965 4.71436,7.28551 0,0.38305 0,0.76657 0,1.15005 -0.60471,0 -1.20905,0 -1.81327,0 -4.13574,0 -10.42892,-5.75143 -13.78024,-5.75143 -1.37189,0 -12.63287,17.99832 -14.39334,20.44101 -2.35596,3.26921 -12.51034,18.77063 -12.78189,22.46104 1.56369,0.78128 3.12775,1.56293 4.69177,2.34459 0,0.7666 0,1.53369 0,2.30072 -1.26651,0.31206 -1.22119,0.767 -2.53848,0.767 -0.36261,0 -0.72516,0 -1.08771,0 -5.68091,0 -6.40353,-3.72772 -6.52737,3.83427 -5.90537,0.51941 -13.65934,16.10602 -16.32499,20.69973 -2.16375,3.72961 -6.15884,9.5476 -6.15884,15.34433 0,0.51135 0,1.02273 0,1.53405 0,6.09369 5.87766,12.6539 11.60471,12.6539 0.85189,0.04 1.70379,0.0798 2.55612,0.1203 2.04874,-0.29608 4.09793,-0.59173 6.14709,-0.88736 0.51535,-1.34982 1.79489,-0.86779 3.27246,-1.90783 1.20948,-0.85093 1.95517,-1.40131 3.12098,-2.45163 1.1398,-1.02713 5.43664,-4.28702 5.57345,-5.61026 2.15116,-0.189 6.06485,-4.41349 7.62387,-5.74253 0.16452,-0.14071 2.65769,-3.06863 3.11469,-3.60879 0.76419,-0.90195 1.59091,-3.64914 1.59091,-5.21967 0,-0.51135 0,-1.02273 0,-1.5336 0,-1.7196 -1.03571,-2.14001 -1.08774,-4.60176 -2.15994,-0.60947 -1.92749,-4.16495 -3.56915,-5.37459 -0.1402,-1.65968 -0.27994,-3.31894 -0.41968,-4.97822 -1.09195,-1.72446 -5.80215,-5.64751 -5.80215,-7.28548 0,-0.88376 0.25219,-1.15054 1.08773,-1.15054 0.72519,0 1.45035,0 2.17591,0 4.10214,0 6.34604,4.44731 9.50058,5.67559 4.0249,1.56725 7.0964,6.97828 8.63107,6.97828 2.13437,0 7.14624,-5.18543 8.70908,-6.51226 2.84106,-2.41203 4.458,-5.78738 6.74972,-8.96829 2.04752,-2.84175 10.28827,-17.19618 10.28827,-20.94694 0,-0.94908 -4.97714,-6.76798 -5.07657,-11.50335 4.31024,0.37908 5.41394,7.28551 7.25247,7.28551 0.70038,0 1.45075,-0.68403 1.45075,-1.1506 0,-5.30484 -6.36536,-8.75556 -7.25293,-12.27031 0.44238,-0.26282 0.38782,-0.38352 1.08822,-0.38352 1.42844,0 7.93692,4.69454 8.34061,5.75185 0.36261,0 0.72516,0 1.0878,0 0.80612,0 1.49768,1.15015 4.35138,1.15015 0.22574,-0.6583 1.8251,-2.07163 2.59048,-3.39618 1.00174,-1.73294 1.76133,-2.25054 1.76133,-4.65595 1.71383,-2.70636 2.05166,-6.83404 3.32196,-9.14093 0.58377,-1.05954 1.52295,-3.29269 2.01391,-4.00606 1.06803,-1.5505 0.93201,-2.98602 1.85987,-4.55163 2.37194,-4.00295 5.03842,-13.74759 8.22946,-16.60578 2.22168,-1.98994 3.98257,-0.26281 7.27014,-4.96664 1.51163,-2.16306 3.32117,-5.38258 4.61664,-7.772454 1.55185,-2.86351 2.86581,-5.220528 4.17892,-8.23497 0.9719,-2.23185 2.42261,-8.104012 3.23798,-9.538651 0.26987,-2.04055 0.53967,-4.08065 0.80957,-6.12075 0,-0.127846 0,-0.255676 0,-0.38353 0,-4.551147 -1.58923,-9.868469 -3.70969,-12.182449 -2.07818,-2.267361 -5.46692,-6.222839 -9.34533,-6.222839 -0.36261,0 -0.72519,0 -1.08774,0 0,-0.255692 0,-0.51136 0,-0.767029 -1.32993,0 -2.65976,0 -3.98923,0 0,0.255669 0,0.511337 0,0.767029 z m 3.26361,302.9234 c -1.58789,0.0378 -10.60253,6.14478 -11.64291,7.24472 -0.35834,0.3786 -1.08017,1.79688 -2.04578,2.82178 -0.87042,0.92373 -1.59298,1.48971 -2.56576,2.27136 -7.72919,6.21176 -2.90945,-0.83408 -7.67926,-0.83408 -2.23343,0 -4.76523,4.19388 -5.94904,5.98005 -0.94,1.41818 -5.69769,4.32257 -7.83114,4.3732 0.0549,-2.61451 0.72513,-1.19672 0.72513,-2.68418 0,-0.25564 0,-0.51144 0,-0.76709 0,-0.74084 -0.64673,-1.53357 -1.08774,-1.53357 -4.99179,0 -7.98435,11.13352 -10.48047,10.47971 -5.19159,-0.81412 -10.38269,-1.62818 -15.57379,-2.44226 -0.0188,0.13266 -0.0374,0.26541 -0.0558,0.39813 -0.25476,-0.12607 -0.50949,-0.25208 -0.76379,-0.37814 -6.15207,0.76474 -12.30387,1.53003 -18.4556,2.29528 -4.25153,3.01047 -11.60474,11.27961 -11.60474,18.40571 -1.27575,2.0144 -1.45031,4.36337 -1.45031,7.66906 0,2.98377 1.08776,4.82813 1.08776,8.05203 2.13224,1.50974 0.27948,2.46586 2.23966,3.38379 0.93375,0.4368 3.16507,1.69211 3.93555,1.69919 1.44696,-0.1607 2.89392,-0.32132 4.34134,-0.48157 4.63845,-3.2843 10.22326,-5.37634 16.89907,-6.67163 3.1735,-0.61569 7.17569,-1.20651 10.01297,-1.6828 2.05756,-0.34488 8.9412,-1.99841 9.71424,-1.99841 0.72427,0 2.06341,0.37955 2.29586,-0.41229 6.08127,-2.43118 4.70645,-2.51511 8.0759,-7.79334 1.32983,-2.08316 1.28793,-4.64526 3.40842,-4.83172 0.18966,0.85983 0.36255,0.88162 0.36255,1.91717 -0.018,0.12476 -0.036,0.24991 -0.0537,0.37506 -0.5867,4.98752 -1.17298,9.97507 -1.75922,14.96296 -0.16867,1.20959 0.25851,1.36587 0.38864,2.61273 0.3537,0.15143 0.70749,0.30316 1.06171,0.45498 2.42306,-0.59698 5.18732,-2.11114 8.70023,-1.85498 7.85809,0.36261 15.71615,0.72529 23.57455,1.08799 4.40259,0 7.64361,0.76699 12.69208,0.76699 4.75927,0 11.12921,-3.06771 15.63717,-3.01214 0.34787,-0.27439 0.6958,-0.54871 1.0441,-0.82257 4.93094,0 15.53391,-6.52201 18.55963,-9.13388 4.68207,-4.04068 9.36335,-10.41129 9.36335,-19.24112 0,-11.64313 -5.34391,-19.50791 -12.26441,-23.84293 -4.35144,-2.72543 -5.85712,-4.5227 -11.6513,-6.08523 -4.43787,-1.19666 -8.47202,-3.43168 -14.52384,-3.43168 -1.69708,-0.0332 -3.39416,-0.0661 -5.09085,-0.099 -3.8638,0.92727 -7.72705,1.85498 -11.59045,2.78268 z M 116.17352,36.814449 l 0,7.285461 c 0,7.3517 5.23021,8.435658 10.87918,8.435658 2.42179,0 7.25286,-1.459938 7.25286,1.53363 -1.15364,1.750683 -0.40538,1.28904 -3.47135,2.08139 -2.47181,0.638752 -4.51931,0.986301 -7.04521,0.986301 -0.83301,0 -3.98882,-2.126652 -3.98882,0 0,2.327309 0.54764,6.135361 2.90107,6.135361 1.45499,0 4.2255,-3.06765 5.4396,-3.06765 1.29123,0 1.45031,0.32803 1.45031,1.533607 0,1.647282 -1.82803,1.835472 -3.05468,2.521725 -5.51677,3.086746 -4.7719,14.924339 -5.64856,20.868874 l 0,4.98484 c 0,6.81543 2.13521,16.540514 4.63807,20.786684 2.73027,4.63068 5.75386,12.95662 12.40583,12.95662 3.61277,0 6.48153,-1.91716 7.97805,-1.91716 7.52733,0 0.30716,4.98485 -2.53852,4.98485 -2.31437,0 -6.52726,2.59628 -6.52726,5.36796 0,3.21506 3.8721,29.17706 4.65645,31.12038 0.4335,1.07385 1.63539,5.59698 1.8897,6.82127 0.62362,3.00104 1.2342,4.30919 2.23806,6.8367 0.86361,2.17459 1.54554,3.68376 3.78151,4.82015 2.08654,1.06045 3.72608,2.167 6.65399,2.167 l 1.45035,0 c 2.42266,0 8.63649,-4.95549 9.50267,-6.82339 1.65972,-3.57901 3.19529,-8.69215 3.1986,-13.8732 0.004,-5.99556 0.58667,-11.18686 0.0172,-16.52544 -0.31267,-2.92968 -0.28203,-4.82635 -0.82338,-7.56514 -1.12803,-5.70488 -2.42682,-10.37185 -3.55446,-16.18099 l -0.72518,0 c 0,-3.96128 -2.03283,-5.88858 -3.21328,-8.10578 -1.87127,-3.51512 0.31221,-6.43153 0.31221,-9.53293 0,-3.31628 -1.00841,-11.533491 -1.60897,-14.787168 -0.91862,-4.980392 -2.05333,-8.487549 -3.32905,-12.96769 -1.17507,-4.125923 -2.88179,-7.897194 -4.34307,-11.896156 -0.78135,-2.139088 -1.50277,-3.971447 -2.22293,-5.701717 -1.05459,-2.53503 -0.44398,-4.34964 -0.97017,-7.409798 -0.82888,-4.816601 -0.26487,-11.36792 -0.58377,-15.871582 -0.39866,-5.633801 -0.70672,-10.649719 -1.07518,-15.35092 -0.67186,-8.56656 -7.30111,-16.47794 -15.96576,-16.47794 -12.63288,0 -15.95613,18.135849 -15.95613,31.826189 z m 171.16462,277.232611 0,0.38363 c 0,1.48786 0.67016,0.0696 0.72515,2.68415 1.76795,0.49884 2.22498,2.66769 5.52604,3.74283 2.47222,0.80517 5.63678,0.23703 8.61969,0.47189 5.99099,0.4718 8.76535,3.83728 14.86499,3.83728 l 10.15396,0 c 1.77642,0 2.69799,-0.53299 3.54696,-1.61746 0.29163,-0.37284 1.53006,-3.44983 1.53006,-3.75037 l 0,-1.53406 c 0,-1.33212 -0.72512,-0.58511 -0.72512,-1.91711 l 0,-1.15015 c -1.46213,-0.36044 -1.69086,-1.15057 -2.53852,-1.15057 -2.59518,0 -4.87387,1.5336 -5.43957,1.5336 l -2.90103,0 c -4.09006,0 -7.11274,-3.00684 -10.16114,-2.7609 l -5.12567,0.39502 -1.39456,1.21585 c -2.49106,0 -2.79492,0.767 -4.35175,0.767 -1.64889,0 -6.47323,-1.59225 -6.88992,-2.68414 l -3.9892,0 c -0.84903,0 -1.45037,0.63602 -1.45037,1.53357 l 0,-6e-5 z m -16.31864,-37.578 0.006,1.1043 3.25735,0.42972 1.45072,0 c 6.14673,0 7.5253,-5.67288 10.92236,-5.74475 l -0.40619,3.44412 -0.0928,1.54199 0.45532,6.12708 c 1.42728,2.25269 4.14581,10.7363 6.89032,10.7363 l 1.08774,0 c 0.83554,0 1.08819,-0.26685 1.08819,-1.15018 l 0,-1.15054 c 0,-7.02945 -9.30417,-13.08002 -5.80215,-20.32291 0,-6.43234 3.52759,-9.51779 3.62622,-14.18747 -0.37009,0.28675 -3.4483,5.25119 -4.25067,6.24234 -1.62744,2.01038 -3.31067,3.59992 -5.1546,5.2858 -2.68872,2.45734 -8.43848,7.53497 -13.07819,7.6442 l 1.2e-4,0 z m -42.791,-17.25522 1.11754,8.8027 1.78354,3.85114 c 1.13435,0.0999 1.2879,0.38354 2.53804,0.38354 1.48097,0 2.1759,-2.54925 2.1759,-4.2178 l 0,-4.98484 c 0,-1.49456 -1.78729,-3.86358 -1.82713,-7.27081 -0.037,-3.18314 0.23541,-6.18338 -0.34877,-8.83426 -3.09578,0.27255 -6.00775,8.19949 -5.43912,12.27033 z m -40.97803,-14.95404 -0.0835,6.14425 0.44611,4.9755 c 1.8842,1.33429 0.39275,1.46124 3.2636,3.06772 2.16963,-0.53446 2.90107,-1.02137 2.90107,-3.83478 l 0,-2.68412 c 0,-1.83908 -1.23839,-5.47134 -1.38023,-7.3659 -0.1452,-1.93802 1.01767,-4.64661 1.01767,-7.5882 1.95096,-0.83273 0.1691,-4.06158 -3.55197,0.4621 -0.78392,0.95258 -2.61276,5.0589 -2.61276,6.82342 z"
         id="svg_1"
         inkscape:connector-curvature="0"
         style="fill:#ff5555" />
    </g>
  </g>
</svg>
